<svg xmlns="http://www.w3.org/2000/svg" xmlns:xlink="http://www.w3.org/1999/xlink" width="500" zoomAndPan="magnify" viewBox="0 0 375 374.999991" height="500" preserveAspectRatio="xMidYMid meet" version="1.0"><defs><g/><clipPath id="7268f3fb16"><path d="M 170 38.25 L 326.855469 38.25 L 326.855469 195 L 170 195 Z M 170 38.25 " clip-rule="nonzero"/></clipPath><clipPath id="1a35138850"><path d="M 275 18 L 325.679688 18 L 325.679688 67 L 275 67 Z M 275 18 " clip-rule="nonzero"/></clipPath><clipPath id="0cdaf12a0e"><rect x="0" width="326" y="0" height="79"/></clipPath></defs><path fill="#b6b6b6" d="M 155.6875 206.882812 L 170.921875 163.335938 L 125.972656 206.882812 Z M 155.6875 206.882812 " fill-opacity="1" fill-rule="nonzero"/><path fill="#b6b6b6" d="M 138.640625 130.679688 C 143.570312 143.414062 144.765625 155.414062 142.347656 162.585938 L 129.621094 168.003906 C 127.628906 167.066406 125.5625 165.589844 123.484375 163.714844 C 117.898438 158.683594 112.257812 150.550781 108.003906 140.554688 C 103.757812 130.589844 101.808594 120.921875 102.042969 113.421875 C 102.117188 111.042969 102.402344 108.863281 102.917969 106.984375 L 116.871094 101.039062 C 123.257812 104.515625 130.34375 112.902344 135.78125 124.101562 C 145.9375 119.824219 161.988281 115.046875 182.617188 115.425781 L 185.546875 110.695312 L 157.019531 110.027344 L 198.359375 53.355469 L 92.046875 53.355469 L 48.164062 206.882812 L 125.972656 206.882812 L 178.109375 122.707031 C 160.910156 123.070312 147.40625 127.089844 138.640625 130.679688 Z M 99.058594 165.730469 L 91.707031 168.859375 C 87.476562 166.863281 82.59375 160.929688 79.226562 153.011719 C 75.996094 145.429688 75.058594 138.136719 76.289062 133.628906 L 83.894531 130.390625 C 84.351562 135.878906 85.933594 142.28125 88.730469 148.851562 C 91.625 155.65625 95.296875 161.402344 99.082031 165.582031 C 99.070312 165.617188 99.074219 165.683594 99.058594 165.730469 Z M 120.085938 166.039062 L 109.480469 170.558594 C 107.007812 169.390625 104.386719 167.257812 101.8125 164.414062 C 98.03125 160.234375 94.359375 154.484375 91.460938 147.683594 C 88.664062 141.113281 87.082031 134.714844 86.628906 129.222656 C 86.324219 125.566406 86.511719 122.304688 87.222656 119.707031 L 98.847656 114.753906 C 98.859375 114.761719 98.871094 114.773438 98.882812 114.777344 C 98.648438 122.273438 100.597656 131.941406 104.84375 141.910156 C 109.101562 151.902344 114.746094 160.03125 120.328125 165.070312 C 120.246094 165.378906 120.1875 165.742188 120.085938 166.039062 Z M 120.085938 166.039062 " fill-opacity="1" fill-rule="nonzero"/><path fill="#b6b6b6" d="M 114.757812 106.078125 C 110.675781 107.820312 112.390625 121.019531 118.585938 135.5625 C 124.78125 150.105469 133.113281 160.492188 137.1875 158.757812 C 140.972656 157.144531 139.761719 145.6875 134.636719 132.433594 C 129.964844 134.617188 127.386719 136.328125 127.28125 136.402344 C 125.703125 137.484375 123.589844 137.039062 122.546875 135.410156 C 121.5 133.777344 121.933594 131.574219 123.503906 130.488281 C 123.957031 130.171875 126.867188 128.246094 131.832031 125.882812 C 125.855469 113.148438 118.511719 104.480469 114.757812 106.078125 Z M 114.757812 106.078125 " fill-opacity="1" fill-rule="nonzero"/><g clip-path="url(#7268f3fb16)"><path fill="#2563eb" d="M 253.835938 38.25 L 208.683594 89.871094 L 246.738281 89.871094 L 215.425781 120.207031 C 220.355469 121.539062 225.449219 123.214844 230.675781 125.210938 C 236.113281 113.996094 243.203125 105.59375 249.605469 102.113281 L 263.558594 108.058594 C 264.070312 109.9375 264.355469 112.117188 264.433594 114.496094 C 264.667969 121.996094 262.714844 131.664062 258.472656 141.628906 C 254.214844 151.625 248.570312 159.75 242.988281 164.789062 C 240.910156 166.664062 238.835938 168.140625 236.851562 169.078125 L 224.125 163.660156 C 221.703125 156.476562 222.910156 144.4375 227.863281 131.675781 C 221.480469 129.269531 215.320312 127.421875 209.40625 126.050781 L 182.597656 152.027344 L 170.773438 194.414062 L 284.113281 194.414062 L 326.839844 38.25 Z M 256.988281 171.625 L 246.382812 167.105469 C 246.28125 166.808594 246.222656 166.453125 246.140625 166.132812 C 251.730469 161.097656 257.367188 152.964844 261.625 142.972656 C 265.867188 133.003906 267.820312 123.335938 267.585938 115.839844 C 267.597656 115.835938 267.609375 115.824219 267.621094 115.816406 L 279.246094 120.769531 C 279.957031 123.367188 280.144531 126.628906 279.839844 130.285156 C 279.382812 135.773438 277.800781 142.171875 275.007812 148.746094 C 272.109375 155.550781 268.4375 161.296875 264.65625 165.476562 C 262.085938 168.328125 259.464844 170.457031 256.988281 171.625 Z M 274.761719 169.925781 L 267.410156 166.796875 C 267.394531 166.757812 267.398438 166.691406 267.386719 166.644531 C 271.171875 162.464844 274.84375 156.714844 277.738281 149.914062 C 280.535156 143.34375 282.117188 136.945312 282.574219 131.453125 L 290.179688 134.691406 C 291.410156 139.199219 290.472656 146.492188 287.242188 154.074219 C 283.875 162 278.992188 167.929688 274.761719 169.925781 Z M 274.761719 169.925781 " fill-opacity="1" fill-rule="nonzero"/></g><path fill="#2563eb" d="M 229.285156 159.828125 C 233.367188 161.558594 241.691406 151.179688 247.886719 136.628906 C 254.082031 122.082031 255.796875 108.882812 251.71875 107.148438 C 247.980469 105.554688 240.675781 114.152344 234.714844 126.792969 C 237.273438 127.84375 239.855469 128.964844 242.46875 130.203125 C 244.1875 131.015625 244.949219 133.117188 244.175781 134.902344 C 243.601562 136.214844 242.359375 136.988281 241.0625 136.988281 C 240.589844 136.988281 240.109375 136.882812 239.65625 136.671875 C 237.046875 135.441406 234.472656 134.3125 231.925781 133.273438 C 226.71875 146.621094 225.480469 158.210938 229.285156 159.828125 Z M 229.285156 159.828125 " fill-opacity="1" fill-rule="nonzero"/><path fill="#141414" d="M 224.121094 163.660156 L 236.847656 169.078125 C 238.835938 168.140625 240.90625 166.664062 242.984375 164.789062 C 248.570312 159.757812 254.210938 151.625 258.464844 141.628906 C 262.710938 131.664062 264.660156 121.996094 264.425781 114.496094 C 264.351562 112.117188 264.066406 109.9375 263.550781 108.058594 L 249.597656 102.113281 C 243.203125 105.59375 236.105469 113.996094 230.671875 125.210938 C 230.0625 126.460938 229.472656 127.734375 228.914062 129.046875 C 228.539062 129.921875 228.183594 130.796875 227.84375 131.667969 C 222.90625 144.429688 221.695312 156.46875 224.121094 163.660156 Z M 231.925781 133.273438 C 232.304688 132.304688 232.695312 131.328125 233.117188 130.34375 C 233.636719 129.128906 234.171875 127.949219 234.714844 126.800781 C 240.675781 114.160156 247.980469 105.558594 251.71875 107.152344 C 255.796875 108.894531 254.082031 122.09375 247.886719 136.636719 C 241.691406 151.179688 233.363281 161.566406 229.285156 159.832031 C 225.480469 158.210938 226.71875 146.621094 231.925781 133.273438 Z M 231.925781 133.273438 " fill-opacity="1" fill-rule="nonzero"/><g transform="matrix(1, 0, 0, 1, 24, 187)"><g clip-path="url(#0cdaf12a0e)"><g fill="#141414" fill-opacity="1"><g transform="translate(2.168802, 64.307623)"><g><path d="M 3.222656 -45.664062 L 48.886719 -45.664062 L 48.886719 -30.527344 L 29.910156 -30.527344 L 29.910156 -33.003906 L 32.386719 -33.003906 L 32.386719 2.476562 L 17.25 2.476562 L 17.25 -33.003906 L 19.726562 -33.003906 L 19.726562 -30.527344 L 0.746094 -30.527344 L 0.746094 -45.664062 Z M 3.222656 -40.714844 L 3.222656 -43.1875 L 5.699219 -43.1875 L 5.699219 -33.003906 L 3.222656 -33.003906 L 3.222656 -35.480469 L 22.199219 -35.480469 L 22.199219 0 L 19.726562 0 L 19.726562 -2.476562 L 29.910156 -2.476562 L 29.910156 0 L 27.433594 0 L 27.433594 -35.480469 L 46.410156 -35.480469 L 46.410156 -33.003906 L 43.9375 -33.003906 L 43.9375 -43.1875 L 46.410156 -43.1875 L 46.410156 -40.714844 Z M 3.222656 -40.714844 "/></g></g></g><g fill="#141414" fill-opacity="1"><g transform="translate(47.315118, 64.307623)"><g><path d="M 3.222656 -45.664062 L 48.886719 -45.664062 L 48.886719 -5.777344 L 38.097656 -5.777344 L 38.097656 -8.25 L 39.855469 -9.996094 L 52.226562 2.476562 L 32.863281 2.476562 L 24.078125 -6.523438 L 25.847656 -8.25 L 25.847656 -5.777344 L 13.40625 -5.777344 L 13.40625 -8.25 L 15.882812 -8.25 L 15.882812 2.476562 L 0.746094 2.476562 L 0.746094 -45.664062 Z M 3.222656 -40.714844 L 3.222656 -43.1875 L 5.699219 -43.1875 L 5.699219 0 L 3.222656 0 L 3.222656 -2.476562 L 13.40625 -2.476562 L 13.40625 0 L 10.933594 0 L 10.933594 -10.726562 L 26.890625 -10.726562 L 35.675781 -1.730469 L 33.90625 0 L 33.90625 -2.476562 L 46.28125 -2.476562 L 46.28125 0 L 44.527344 1.742188 L 32.152344 -10.726562 L 46.410156 -10.726562 L 46.410156 -8.25 L 43.9375 -8.25 L 43.9375 -43.1875 L 46.410156 -43.1875 L 46.410156 -40.714844 Z M 13.40625 -20.910156 L 36.226562 -20.910156 L 36.226562 -18.4375 L 33.75 -18.4375 L 33.75 -33.003906 L 36.226562 -33.003906 L 36.226562 -30.527344 L 13.40625 -30.527344 L 13.40625 -33.003906 L 15.882812 -33.003906 L 15.882812 -18.4375 L 13.40625 -18.4375 Z M 10.933594 -15.960938 L 10.933594 -35.480469 L 38.703125 -35.480469 L 38.703125 -15.960938 Z M 10.933594 -15.960938 "/></g></g></g><g fill="#141414" fill-opacity="1"><g transform="translate(92.461434, 64.307623)"><g><path d="M 48.886719 -43.1875 L 48.886719 2.476562 L 33.75 2.476562 L 33.75 -8.25 L 36.226562 -8.25 L 36.226562 -5.777344 L 13.40625 -5.777344 L 13.40625 -8.25 L 15.882812 -8.25 L 15.882812 2.476562 L 0.746094 2.476562 L 0.746094 -45.664062 L 48.886719 -45.664062 Z M 43.9375 -43.1875 L 46.410156 -43.1875 L 46.410156 -40.714844 L 3.222656 -40.714844 L 3.222656 -43.1875 L 5.699219 -43.1875 L 5.699219 0 L 3.222656 0 L 3.222656 -2.476562 L 13.40625 -2.476562 L 13.40625 0 L 10.933594 0 L 10.933594 -10.726562 L 38.703125 -10.726562 L 38.703125 0 L 36.226562 0 L 36.226562 -2.476562 L 46.410156 -2.476562 L 46.410156 0 L 43.9375 0 Z M 13.40625 -20.910156 L 36.226562 -20.910156 L 36.226562 -18.4375 L 33.75 -18.4375 L 33.75 -33.003906 L 36.226562 -33.003906 L 36.226562 -30.527344 L 13.40625 -30.527344 L 13.40625 -33.003906 L 15.882812 -33.003906 L 15.882812 -18.4375 L 13.40625 -18.4375 Z M 10.933594 -15.960938 L 10.933594 -35.480469 L 38.703125 -35.480469 L 38.703125 -15.960938 Z M 10.933594 -15.960938 "/></g></g></g><g fill="#141414" fill-opacity="1"><g transform="translate(137.60775, 64.307623)"><g><path d="M 3.222656 -45.664062 L 48.886719 -45.664062 L 48.886719 -30.527344 L 13.40625 -30.527344 L 13.40625 -33.003906 L 15.882812 -33.003906 L 15.882812 -10.183594 L 13.40625 -10.183594 L 13.40625 -12.660156 L 48.886719 -12.660156 L 48.886719 2.476562 L 0.746094 2.476562 L 0.746094 -45.664062 Z M 3.222656 -40.714844 L 3.222656 -43.1875 L 5.699219 -43.1875 L 5.699219 0 L 3.222656 0 L 3.222656 -2.476562 L 46.410156 -2.476562 L 46.410156 0 L 43.9375 0 L 43.9375 -10.183594 L 46.410156 -10.183594 L 46.410156 -7.710938 L 10.933594 -7.710938 L 10.933594 -35.480469 L 46.410156 -35.480469 L 46.410156 -33.003906 L 43.9375 -33.003906 L 43.9375 -43.1875 L 46.410156 -43.1875 L 46.410156 -40.714844 Z M 3.222656 -40.714844 "/></g></g></g><g fill="#141414" fill-opacity="1"><g transform="translate(182.754066, 64.307623)"><g><path d="M 48.539062 2.476562 L 35.546875 2.476562 L 24.765625 -15.214844 L 26.878906 -16.503906 L 26.878906 -14.027344 L 13.40625 -14.027344 L 13.40625 -16.503906 L 15.882812 -16.503906 L 15.882812 2.476562 L 0.746094 2.476562 L 0.746094 -45.664062 L 15.882812 -45.664062 L 15.882812 -26.6875 L 13.40625 -26.6875 L 13.40625 -29.164062 L 26.945312 -29.164062 L 26.945312 -26.6875 L 24.824219 -27.960938 L 35.472656 -45.664062 L 52.386719 -45.664062 L 38.335938 -19.894531 L 36.164062 -21.078125 L 38.296875 -22.332031 L 52.863281 2.476562 Z M 48.539062 -2.476562 L 48.539062 0 L 46.40625 1.253906 L 33.320312 -21.035156 L 46.042969 -44.375 L 48.214844 -43.1875 L 48.214844 -40.714844 L 36.871094 -40.714844 L 36.871094 -43.1875 L 38.992188 -41.914062 L 28.34375 -24.210938 L 10.933594 -24.210938 L 10.933594 -43.1875 L 13.40625 -43.1875 L 13.40625 -40.714844 L 3.222656 -40.714844 L 3.222656 -43.1875 L 5.699219 -43.1875 L 5.699219 0 L 3.222656 0 L 3.222656 -2.476562 L 13.40625 -2.476562 L 13.40625 0 L 10.933594 0 L 10.933594 -18.976562 L 28.269531 -18.976562 L 39.050781 -1.289062 L 36.9375 0 L 36.9375 -2.476562 Z M 48.539062 -2.476562 "/></g></g></g><g fill="#141414" fill-opacity="1"><g transform="translate(230.027593, 64.307623)"><g><path d="M 46.410156 -30.527344 L 13.40625 -30.527344 L 13.40625 -33.003906 L 15.882812 -33.003906 L 15.882812 -26.6875 L 13.40625 -26.6875 L 13.40625 -29.164062 L 48.886719 -29.164062 L 48.886719 -14.027344 L 13.40625 -14.027344 L 13.40625 -16.503906 L 15.882812 -16.503906 L 15.882812 -10.183594 L 13.40625 -10.183594 L 13.40625 -12.660156 L 48.886719 -12.660156 L 48.886719 2.476562 L 0.746094 2.476562 L 0.746094 -45.664062 L 48.886719 -45.664062 L 48.886719 -30.527344 Z M 46.410156 -35.480469 L 46.410156 -33.003906 L 43.9375 -33.003906 L 43.9375 -43.1875 L 46.410156 -43.1875 L 46.410156 -40.714844 L 3.222656 -40.714844 L 3.222656 -43.1875 L 5.699219 -43.1875 L 5.699219 0 L 3.222656 0 L 3.222656 -2.476562 L 46.410156 -2.476562 L 46.410156 0 L 43.9375 0 L 43.9375 -10.183594 L 46.410156 -10.183594 L 46.410156 -7.710938 L 10.933594 -7.710938 L 10.933594 -18.976562 L 46.410156 -18.976562 L 46.410156 -16.503906 L 43.9375 -16.503906 L 43.9375 -26.6875 L 46.410156 -26.6875 L 46.410156 -24.210938 L 10.933594 -24.210938 L 10.933594 -35.480469 Z M 46.410156 -35.480469 "/></g></g></g><g clip-path="url(#1a35138850)"><g fill="#141414" fill-opacity="1"><g transform="translate(275.173909, 64.307623)"><g><path d="M 3.222656 -45.664062 L 48.886719 -45.664062 L 48.886719 -5.777344 L 38.097656 -5.777344 L 38.097656 -8.25 L 39.855469 -9.996094 L 52.226562 2.476562 L 32.863281 2.476562 L 24.078125 -6.523438 L 25.847656 -8.25 L 25.847656 -5.777344 L 13.40625 -5.777344 L 13.40625 -8.25 L 15.882812 -8.25 L 15.882812 2.476562 L 0.746094 2.476562 L 0.746094 -45.664062 Z M 3.222656 -40.714844 L 3.222656 -43.1875 L 5.699219 -43.1875 L 5.699219 0 L 3.222656 0 L 3.222656 -2.476562 L 13.40625 -2.476562 L 13.40625 0 L 10.933594 0 L 10.933594 -10.726562 L 26.890625 -10.726562 L 35.675781 -1.730469 L 33.90625 0 L 33.90625 -2.476562 L 46.28125 -2.476562 L 46.28125 0 L 44.527344 1.742188 L 32.152344 -10.726562 L 46.410156 -10.726562 L 46.410156 -8.25 L 43.9375 -8.25 L 43.9375 -43.1875 L 46.410156 -43.1875 L 46.410156 -40.714844 Z M 13.40625 -20.910156 L 36.226562 -20.910156 L 36.226562 -18.4375 L 33.75 -18.4375 L 33.75 -33.003906 L 36.226562 -33.003906 L 36.226562 -30.527344 L 13.40625 -30.527344 L 13.40625 -33.003906 L 15.882812 -33.003906 L 15.882812 -18.4375 L 13.40625 -18.4375 Z M 10.933594 -15.960938 L 10.933594 -35.480469 L 38.703125 -35.480469 L 38.703125 -15.960938 Z M 10.933594 -15.960938 "/></g></g></g></g><g fill="#2563eb" fill-opacity="1"><g transform="translate(2.168802, 64.307623)"><g><path d="M 3.21875 -43.1875 L 46.421875 -43.1875 L 46.421875 -33.015625 L 29.90625 -33.015625 L 29.90625 0 L 19.734375 0 L 19.734375 -33.015625 L 3.21875 -33.015625 Z M 3.21875 -43.1875 "/></g></g></g><g fill="#2563eb" fill-opacity="1"><g transform="translate(47.315118, 64.307623)"><g><path d="M 3.21875 -43.1875 L 46.421875 -43.1875 L 46.421875 -8.25 L 38.09375 -8.25 L 46.28125 0 L 33.90625 0 L 25.859375 -8.25 L 13.40625 -8.25 L 13.40625 0 L 3.21875 0 Z M 13.40625 -18.4375 L 36.234375 -18.4375 L 36.234375 -33.015625 L 13.40625 -33.015625 Z M 13.40625 -18.4375 "/></g></g></g><g fill="#2563eb" fill-opacity="1"><g transform="translate(92.461434, 64.307623)"><g><path d="M 46.421875 -43.1875 L 46.421875 0 L 36.234375 0 L 36.234375 -8.25 L 13.40625 -8.25 L 13.40625 0 L 3.21875 0 L 3.21875 -43.1875 Z M 13.40625 -18.4375 L 36.234375 -18.4375 L 36.234375 -33.015625 L 13.40625 -33.015625 Z M 13.40625 -18.4375 "/></g></g></g><g fill="#2563eb" fill-opacity="1"><g transform="translate(137.60775, 64.307623)"><g><path d="M 3.21875 -43.1875 L 46.421875 -43.1875 L 46.421875 -33.015625 L 13.40625 -33.015625 L 13.40625 -10.1875 L 46.421875 -10.1875 L 46.421875 0 L 3.21875 0 Z M 3.21875 -43.1875 "/></g></g></g><g fill="#2563eb" fill-opacity="1"><g transform="translate(182.754066, 64.307623)"><g><path d="M 48.546875 0 L 36.9375 0 L 26.890625 -16.5 L 13.40625 -16.5 L 13.40625 0 L 3.21875 0 L 3.21875 -43.1875 L 13.40625 -43.1875 L 13.40625 -26.6875 L 26.953125 -26.6875 L 36.875 -43.1875 L 48.21875 -43.1875 L 36.171875 -21.078125 Z M 48.546875 0 "/></g></g></g><g fill="#2563eb" fill-opacity="1"><g transform="translate(230.027593, 64.307623)"><g><path d="M 46.421875 -33.015625 L 13.40625 -33.015625 L 13.40625 -26.6875 L 46.421875 -26.6875 L 46.421875 -16.5 L 13.40625 -16.5 L 13.40625 -10.1875 L 46.421875 -10.1875 L 46.421875 0 L 3.21875 0 L 3.21875 -43.1875 L 46.421875 -43.1875 Z M 46.421875 -33.015625 "/></g></g></g><g fill="#2563eb" fill-opacity="1"><g transform="translate(275.173909, 64.307623)"><g><path d="M 3.21875 -43.1875 L 46.421875 -43.1875 L 46.421875 -8.25 L 38.09375 -8.25 L 46.28125 0 L 33.90625 0 L 25.859375 -8.25 L 13.40625 -8.25 L 13.40625 0 L 3.21875 0 Z M 13.40625 -18.4375 L 36.234375 -18.4375 L 36.234375 -33.015625 L 13.40625 -33.015625 Z M 13.40625 -18.4375 "/></g></g></g></g></g><g fill="#141414" fill-opacity="1"><g transform="translate(153.449563, 278.49549)"><g><path d="M 7.144531 1.050781 C 6.023438 1.050781 5.042969 0.890625 4.207031 0.574219 C 3.34375 0.246094 2.625 -0.21875 2.050781 -0.816406 C 1.480469 -1.414062 1.054688 -2.109375 0.777344 -2.902344 C 0.507812 -3.664062 0.367188 -4.492188 0.347656 -5.386719 C 0.332031 -6.257812 0.433594 -7.160156 0.652344 -8.09375 C 0.855469 -8.960938 1.144531 -9.800781 1.527344 -10.613281 C 1.914062 -11.433594 2.394531 -12.191406 2.960938 -12.886719 C 3.53125 -13.589844 4.195312 -14.203125 4.945312 -14.730469 C 5.699219 -15.257812 6.542969 -15.671875 7.46875 -15.964844 C 8.398438 -16.257812 9.402344 -16.402344 10.484375 -16.402344 C 11.628906 -16.402344 12.652344 -16.203125 13.554688 -15.800781 C 14.472656 -15.390625 15.234375 -14.792969 15.839844 -14.011719 C 16.4375 -13.234375 16.847656 -12.308594 17.070312 -11.226562 L 17.222656 -10.488281 L 12.9375 -9.160156 L 12.835938 -10.171875 C 12.777344 -10.722656 12.636719 -11.148438 12.417969 -11.449219 C 12.199219 -11.746094 11.917969 -11.960938 11.574219 -12.097656 C 11.175781 -12.253906 10.714844 -12.332031 10.191406 -12.332031 C 9.488281 -12.332031 8.855469 -12.203125 8.292969 -11.949219 C 7.714844 -11.6875 7.207031 -11.332031 6.765625 -10.882812 C 6.3125 -10.414062 5.933594 -9.878906 5.628906 -9.277344 C 5.316406 -8.664062 5.078125 -8.015625 4.921875 -7.335938 C 4.773438 -6.6875 4.707031 -6.078125 4.730469 -5.515625 C 4.75 -5 4.859375 -4.554688 5.054688 -4.179688 C 5.226562 -3.847656 5.496094 -3.585938 5.859375 -3.390625 C 6.25 -3.183594 6.777344 -3.078125 7.4375 -3.078125 C 7.910156 -3.078125 8.375 -3.15625 8.832031 -3.3125 C 9.296875 -3.472656 9.730469 -3.703125 10.136719 -4.003906 C 10.546875 -4.308594 10.914062 -4.667969 11.234375 -5.085938 C 11.554688 -5.496094 11.804688 -5.953125 11.992188 -6.460938 L 12.773438 -6.171875 L 12.800781 -5.335938 L 8.207031 -5.195312 L 9.105469 -9.117188 L 16.964844 -9.117188 L 14.671875 0.832031 L 10.894531 0.832031 L 11.273438 -2.144531 L 12.101562 -2.039062 L 12.753906 -1.523438 C 12.097656 -0.691406 11.273438 -0.0546875 10.277344 0.390625 C 9.300781 0.832031 8.253906 1.050781 7.144531 1.050781 Z M 7.144531 -0.617188 C 8.015625 -0.617188 8.835938 -0.785156 9.597656 -1.128906 C 10.34375 -1.464844 10.960938 -1.9375 11.449219 -2.554688 L 13.308594 -4.910156 L 12.667969 0.105469 L 11.839844 0 L 11.839844 -0.832031 L 14.011719 -0.832031 L 14.011719 0 L 13.199219 -0.1875 L 15.105469 -8.472656 L 15.917969 -8.285156 L 15.917969 -7.453125 L 9.769531 -7.453125 L 9.769531 -8.285156 L 10.582031 -8.097656 L 10.070312 -5.875 L 9.261719 -6.0625 L 9.234375 -6.894531 L 13.984375 -7.039062 L 13.554688 -5.878906 C 13.308594 -5.214844 12.976562 -4.609375 12.554688 -4.066406 C 12.136719 -3.527344 11.664062 -3.0625 11.128906 -2.664062 C 10.585938 -2.261719 10 -1.953125 9.375 -1.738281 C 8.742188 -1.519531 8.09375 -1.410156 7.4375 -1.410156 C 6.496094 -1.410156 5.707031 -1.582031 5.070312 -1.921875 C 4.40625 -2.277344 3.910156 -2.773438 3.578125 -3.410156 C 3.265625 -4.003906 3.097656 -4.683594 3.066406 -5.449219 C 3.039062 -6.164062 3.117188 -6.917969 3.296875 -7.714844 C 3.488281 -8.523438 3.769531 -9.296875 4.140625 -10.035156 C 4.523438 -10.785156 5 -11.453125 5.574219 -12.042969 C 6.160156 -12.644531 6.835938 -13.121094 7.605469 -13.46875 C 8.386719 -13.820312 9.25 -13.996094 10.191406 -13.996094 C 10.925781 -13.996094 11.589844 -13.878906 12.183594 -13.644531 C 12.828125 -13.390625 13.355469 -12.988281 13.757812 -12.4375 C 14.160156 -11.894531 14.402344 -11.195312 14.492188 -10.34375 L 13.664062 -10.257812 L 13.417969 -11.054688 L 16.007812 -11.855469 L 16.253906 -11.058594 L 15.4375 -10.894531 C 15.269531 -11.722656 14.964844 -12.421875 14.523438 -12.992188 C 14.085938 -13.550781 13.539062 -13.980469 12.871094 -14.28125 C 12.1875 -14.585938 11.394531 -14.738281 10.484375 -14.738281 C 9.574219 -14.738281 8.734375 -14.617188 7.972656 -14.375 C 7.207031 -14.132812 6.515625 -13.796875 5.898438 -13.367188 C 5.277344 -12.929688 4.726562 -12.417969 4.25 -11.835938 C 3.769531 -11.246094 3.363281 -10.601562 3.035156 -9.902344 C 2.703125 -9.199219 2.449219 -8.46875 2.273438 -7.714844 C 2.089844 -6.914062 2 -6.148438 2.015625 -5.414062 C 2.027344 -4.703125 2.136719 -4.046875 2.347656 -3.453125 C 2.546875 -2.886719 2.847656 -2.390625 3.253906 -1.96875 C 3.652344 -1.550781 4.167969 -1.222656 4.796875 -0.984375 C 5.445312 -0.738281 6.226562 -0.617188 7.144531 -0.617188 Z M 7.144531 -0.617188 "/></g></g></g><g fill="#141414" fill-opacity="1"><g transform="translate(178.500667, 278.49549)"><g><path d="M 4.144531 -0.191406 L 5.542969 -6.164062 L 6.355469 -5.976562 L 5.589844 -5.640625 L 0.992188 -16.15625 L 6.027344 -16.15625 L 8.992188 -8.746094 L 8.21875 -8.4375 L 7.589844 -8.980469 L 13.8125 -16.15625 L 19.34375 -16.15625 L 9.730469 -5.417969 L 9.109375 -5.976562 L 9.917969 -5.785156 L 8.371094 0.832031 L 3.90625 0.832031 Z M 5.765625 0.191406 L 4.957031 0 L 4.957031 -0.832031 L 7.710938 -0.832031 L 7.710938 0 L 6.898438 -0.191406 L 8.347656 -6.371094 L 16.859375 -15.878906 L 17.480469 -15.320312 L 17.480469 -14.488281 L 14.195312 -14.488281 L 14.195312 -15.320312 L 14.824219 -14.777344 L 7.953125 -6.859375 L 4.691406 -15.011719 L 5.464844 -15.320312 L 5.464844 -14.488281 L 2.265625 -14.488281 L 2.265625 -15.320312 L 3.03125 -15.65625 L 7.226562 -6.054688 Z M 5.765625 0.191406 "/></g></g></g><g fill="#141414" fill-opacity="1"><g transform="translate(202.044561, 278.49549)"><g><path d="M -0.0742188 -0.1875 L 3.597656 -16.15625 L 8.671875 -16.15625 L 10.300781 -4.539062 L 9.476562 -4.425781 L 8.765625 -4.855469 L 15.613281 -16.15625 L 20.859375 -16.15625 L 16.9375 0.832031 L 12.582031 0.832031 L 15.488281 -11.648438 L 16.296875 -11.460938 L 17.007812 -11.03125 L 10.617188 -0.5 L 6.757812 -0.5 L 5.214844 -11.34375 L 6.039062 -11.460938 L 6.851562 -11.273438 L 4.035156 0.832031 L -0.308594 0.832031 Z M 1.550781 0.1875 L 0.738281 0 L 0.738281 -0.832031 L 3.371094 -0.832031 L 3.371094 0 L 2.5625 -0.1875 L 5.230469 -11.648438 L 6.863281 -11.578125 L 8.304688 -1.449219 L 7.480469 -1.332031 L 7.480469 -2.167969 L 10.148438 -2.167969 L 10.148438 -1.332031 L 9.4375 -1.765625 L 15.585938 -11.894531 L 17.109375 -11.273438 L 14.441406 0.1875 L 13.628906 0 L 13.628906 -0.832031 L 16.277344 -0.832031 L 16.277344 0 L 15.464844 -0.1875 L 19 -15.507812 L 19.8125 -15.320312 L 19.8125 -14.488281 L 16.082031 -14.488281 L 16.082031 -15.320312 L 16.792969 -14.890625 L 8.976562 -1.992188 L 7.125 -15.207031 L 7.949219 -15.320312 L 7.949219 -14.488281 L 4.261719 -14.488281 L 4.261719 -15.320312 L 5.074219 -15.136719 Z M 1.550781 0.1875 "/></g></g></g><g fill="#b6b6b6" fill-opacity="1"><g transform="translate(153.449563, 278.49549)"><g><path d="M 7.140625 0.21875 C 6.117188 0.21875 5.234375 0.078125 4.484375 -0.203125 C 3.742188 -0.484375 3.128906 -0.878906 2.640625 -1.390625 C 2.160156 -1.898438 1.800781 -2.492188 1.5625 -3.171875 C 1.320312 -3.859375 1.191406 -4.601562 1.171875 -5.40625 C 1.160156 -6.207031 1.257812 -7.039062 1.46875 -7.90625 C 1.65625 -8.71875 1.925781 -9.5 2.28125 -10.25 C 2.632812 -11.007812 3.070312 -11.710938 3.59375 -12.359375 C 4.125 -13.003906 4.734375 -13.566406 5.421875 -14.046875 C 6.109375 -14.523438 6.875 -14.894531 7.71875 -15.15625 C 8.5625 -15.425781 9.484375 -15.5625 10.484375 -15.5625 C 11.503906 -15.5625 12.410156 -15.382812 13.203125 -15.03125 C 13.992188 -14.675781 14.648438 -14.160156 15.171875 -13.484375 C 15.691406 -12.816406 16.050781 -12.007812 16.25 -11.0625 L 13.65625 -10.25 C 13.582031 -10.957031 13.390625 -11.519531 13.078125 -11.9375 C 12.773438 -12.363281 12.375 -12.671875 11.875 -12.859375 C 11.382812 -13.054688 10.820312 -13.15625 10.1875 -13.15625 C 9.363281 -13.15625 8.613281 -13.003906 7.9375 -12.703125 C 7.269531 -12.398438 6.679688 -11.984375 6.171875 -11.453125 C 5.660156 -10.929688 5.234375 -10.332031 4.890625 -9.65625 C 4.546875 -8.976562 4.285156 -8.269531 4.109375 -7.53125 C 3.941406 -6.800781 3.867188 -6.113281 3.890625 -5.46875 C 3.921875 -4.832031 4.0625 -4.269531 4.3125 -3.78125 C 4.5625 -3.300781 4.941406 -2.925781 5.453125 -2.65625 C 5.972656 -2.382812 6.632812 -2.25 7.4375 -2.25 C 8 -2.25 8.550781 -2.34375 9.09375 -2.53125 C 9.644531 -2.71875 10.15625 -2.984375 10.625 -3.328125 C 11.101562 -3.679688 11.523438 -4.097656 11.890625 -4.578125 C 12.265625 -5.054688 12.554688 -5.585938 12.765625 -6.171875 L 9.265625 -6.0625 L 9.765625 -8.28125 L 15.921875 -8.28125 L 14 0 L 11.84375 0 L 12.09375 -2.03125 C 11.53125 -1.3125 10.8125 -0.753906 9.9375 -0.359375 C 9.0625 0.0234375 8.128906 0.21875 7.140625 0.21875 Z M 7.140625 0.21875 "/></g></g></g><g fill="#b6b6b6" fill-opacity="1"><g transform="translate(178.500667, 278.49549)"><g><path d="M 4.953125 0 L 6.359375 -5.96875 L 2.265625 -15.3125 L 5.46875 -15.3125 L 8.21875 -8.4375 L 14.1875 -15.3125 L 17.46875 -15.3125 L 9.109375 -5.96875 L 7.703125 0 Z M 4.953125 0 "/></g></g></g><g fill="#b6b6b6" fill-opacity="1"><g transform="translate(202.044561, 278.49549)"><g><path d="M 0.734375 0 L 4.265625 -15.3125 L 7.953125 -15.3125 L 9.46875 -4.421875 L 16.078125 -15.3125 L 19.8125 -15.3125 L 16.265625 0 L 13.625 0 L 16.296875 -11.453125 L 10.140625 -1.328125 L 7.484375 -1.328125 L 6.03125 -11.453125 L 3.375 0 Z M 0.734375 0 "/></g></g></g></svg>